<?xml version="1.0" encoding="UTF-8"?>
<svg id="Layer_2" data-name="Layer 2" xmlns="http://www.w3.org/2000/svg" viewBox="0 0 939.26 404.84">
  <defs>
    <style>
      .cls-1 {
        fill: #ff5413;
      }
    </style>
  </defs>
  <g id="Layer_1-2" data-name="Layer 1">
    <g>
      <path d="M736.84,404.84H202.42c-53.86,0-104.63-21.11-142.97-59.45C21.11,307.05,0,256.28,0,202.42S21.11,97.79,59.45,59.45C97.79,21.11,148.57,0,202.42,0h534.42c53.86,0,104.63,21.11,142.97,59.45,38.34,38.34,59.45,89.11,59.45,142.97s-21.11,104.63-59.45,142.97-89.11,59.45-142.97,59.45ZM202.42,19.7C101.67,19.7,19.7,101.67,19.7,202.42s81.97,182.73,182.73,182.73h534.42c100.76,0,182.73-81.97,182.73-182.73S837.59,19.7,736.84,19.7H202.42Z"/>
      <rect class="cls-1" x="91.08" y="85.4" width="451.49" height="234.04" rx="112.89" ry="112.89"/>
      <g>
        <path d="M213.08,260.97c-5.09-.83-10.93-1.43-17.53-1.79-6.6-.36-13.23-.57-19.89-.62-6.66-.05-12.53.13-17.61.54-4.98.41-8.52-.31-10.63-2.18s-3.11-4.05-3-6.53c.11-4.87.32-9.46.65-13.77.32-4.3.49-8.89.49-13.77.11-4.15.22-9.26.32-15.32.11-6.07.24-12.39.41-18.98.16-6.58.35-12.86.57-18.82.22-5.96.43-11.05.65-15.25.22-4.2.38-6.82.49-7.86.43-3.11,1.95-5.31,4.55-6.61,2.6-1.3,5.46-1.94,8.6-1.94,4.33,0,7.79.75,10.39,2.26,2.6,1.5,3.84,4.18,3.73,8.01-.43,13.17-.95,27.3-1.54,42.39-.6,15.09-1.17,30.1-1.7,45.04,7.57-.52,15.02-.54,22.32-.08s14.1,1.22,20.37,2.26c2.81.42,4.73,1.82,5.76,4.2,1.03,2.39,1.54,4.82,1.54,7.31,0,3.42-.65,6.3-1.95,8.63-1.3,2.33-3.63,3.29-6.98,2.88Z"/>
        <path d="M229.31,221.3c0-5.08.89-10.37,2.68-15.87,1.79-5.5,4.49-10.63,8.12-15.4,3.63-4.77,8.31-8.63,14.04-11.59,5.74-2.96,12.5-4.43,20.29-4.43,5.95,0,11.07.8,15.34,2.41,4.27,1.61,7.6,3.97,9.98,7.08,2.38,3.11,3.57,6.95,3.57,11.51,0,5.29-1.44,10.01-4.3,14.16-2.87,4.15-6.66,7.73-11.36,10.73-4.71,3.01-9.77,5.42-15.18,7.23-5.41,1.82-10.66,3.03-15.75,3.66,1.41,4.36,3.6,7.42,6.57,9.18,2.98,1.77,6.95,2.65,11.93,2.65,4.22,0,8.17-.98,11.85-2.96,3.68-1.97,7.52-5.03,11.53-9.18.65-.62,1.38-1.09,2.19-1.4.81-.31,1.6-.47,2.35-.47,1.84,0,3.57.54,5.2,1.63s2.89,2.46,3.82,4.12c.92,1.66,1.38,3.22,1.38,4.67,0,.73-.22,1.56-.65,2.49-.43.93-.92,1.77-1.46,2.49-2.82,3.73-6.33,6.92-10.55,9.57-4.22,2.64-8.88,4.64-13.96,5.99-5.09,1.35-10.45,2.02-16.07,2.02-9.42,0-17.21-1.94-23.38-5.83-6.17-3.89-10.74-8.92-13.72-15.09-2.98-6.17-4.47-12.63-4.47-19.37ZM255.77,213.68c5.41-.83,9.87-2.15,13.39-3.97,3.52-1.81,6.14-3.86,7.87-6.14,1.73-2.28,2.6-4.46,2.6-6.53,0-1.35-.54-2.62-1.62-3.81-1.08-1.19-2.98-1.79-5.68-1.79s-5.06.65-7.39,1.94c-2.33,1.3-4.3,3.55-5.93,6.77-1.62,3.22-2.71,7.73-3.25,13.53Z"/>
        <path d="M327.69,186.76c.22-4.46,1.51-7.62,3.9-9.49,2.38-1.87,6.06-2.8,11.04-2.8,3.57,0,6.47.65,8.69,1.94,2.22,1.3,3.38,3.09,3.49,5.37.11,1.56.08,3.03-.08,4.43-.16,1.4-.35,3.24-.57,5.52,2.16-4.46,4.73-8.11,7.71-10.97,2.98-2.85,6.17-4.95,9.58-6.3,3.41-1.35,6.58-2.02,9.5-2.02,2.7,0,5.36.34,7.96,1.01,2.6.68,4.6,1.63,6.01,2.88,1.41,1.14,2.46,2.46,3.16,3.97.7,1.5,1.05,3.29,1.05,5.37,0,4.36-1,7.6-3,9.72-2,2.13-4.63,3.19-7.87,3.19-1.62,0-3.09-.26-4.38-.78-1.3-.52-2.65-1.01-4.06-1.48-1.41-.47-3.19-.7-5.36-.7-2.27,0-4.36.49-6.25,1.48-1.89.99-3.57,2.39-5.03,4.2-1.46,1.82-2.84,4.02-4.14,6.61-.97,2.28-1.79,4.98-2.44,8.09-.65,3.11-1.19,6.53-1.62,10.27-.43,3.73-.81,7.75-1.14,12.06-.32,4.3-.65,8.79-.97,13.46-.22,3.63-1.76,6.3-4.63,8.01-2.87,1.71-7.06,2.57-12.58,2.57-2.71,0-5.17-.68-7.39-2.02-2.22-1.35-3.27-3.94-3.17-7.78.32-6.74.62-13.97.89-21.7.27-7.72.57-15.43.89-23.1.32-7.67.59-14.68.81-21Z"/>
        <path d="M413.08,181.16c-.11-2.28,1.06-4.33,3.49-6.14,2.44-1.81,6.2-2.72,11.28-2.72,2.49,0,4.52.44,6.09,1.32,1.57.88,2.76,2.62,3.57,5.21.81,2.59,1.27,6.53,1.38,11.82,2.6-5.7,5.87-10.11,9.82-13.22,3.95-3.11,8.85-4.67,14.69-4.67,5.52,0,10.61,1.3,15.26,3.89,4.65,2.59,8.41,6.56,11.28,11.9,2.87,5.34,4.3,12.21,4.3,20.61,0,4.05-.16,8.51-.49,13.38-.32,4.88-.68,9.72-1.05,14.55-.38,4.82-.57,9.36-.57,13.61,0,3.22-1.41,5.71-4.22,7.47-2.82,1.76-6.49,2.65-11.04,2.65s-7.77-.7-9.66-2.1c-1.9-1.4-2.84-3.76-2.84-7.08,0-1.45.13-3.55.41-6.3.27-2.75.54-5.86.81-9.33.27-3.47.51-7.1.73-10.89.22-3.78.32-7.44.32-10.97,0-5.08-.49-8.95-1.46-11.59-.97-2.65-2.25-4.43-3.82-5.37-1.57-.93-3.33-1.4-5.28-1.4-1.62,0-3.22.75-4.79,2.26-1.57,1.5-3.03,3.5-4.38,5.99-1.35,2.49-2.49,5.13-3.41,7.93-.92,2.8-1.65,5.5-2.19,8.09-1.08,6.74-1.95,12.19-2.6,16.34-.65,4.15-1.16,7.44-1.54,9.88-.38,2.44-.68,4.43-.89,5.99-.43,3.22-1.7,5.37-3.82,6.46s-5.17,1.63-9.17,1.63c-3.14,0-5.84-.36-8.12-1.09s-3.9-2.07-4.87-4.05c-.97-1.97-1.14-4.77-.49-8.4.76-4.04,1.43-8.66,2.03-13.85.59-5.18,1.06-10.6,1.38-16.26.32-5.65.49-11.12.49-16.41,0-3.21-.03-5.94-.08-8.17-.06-2.23-.11-4.23-.16-5.99-.06-1.76-.19-3.42-.41-4.98Z"/>
        <path d="M527.54,162.49c-3.57-.31-6.17-1.5-7.79-3.58-1.62-2.07-2.44-4.56-2.44-7.47s.76-5.39,2.27-7.78c1.51-2.38,3.73-3.52,6.66-3.42l15.42.47c10.61.31,21.21.47,31.82.47,3.79,0,7.6-.02,11.44-.08,3.84-.05,7.66-.13,11.45-.23,3.03-.1,5.71.75,8.04,2.57,2.33,1.82,3.49,3.81,3.49,5.99,0,1.25-.35,2.67-1.06,4.28-.7,1.61-1.7,3.19-3,4.75-4,4.25-8.47,9.44-13.39,15.56-4.93,6.12-9.98,12.76-15.18,19.91-5.2,7.16-10.28,14.42-15.26,21.78-4.98,7.37-9.47,14.52-13.47,21.47,2.81-.1,5.6-.21,8.36-.31,2.76-.1,5.44-.16,8.04-.16,4.55,0,9.01.1,13.39.31,4.38.21,8.39.47,12.01.78,3.63.31,6.58.73,8.85,1.24,3.35.62,5.49,1.87,6.41,3.73.92,1.87,1.38,4.15,1.38,6.85,0,3.01-.84,5.71-2.52,8.09-1.68,2.38-4.57,3.37-8.69,2.96-4.22-.42-9.34-.8-15.34-1.17-6.01-.36-12.2-.54-18.59-.54-9.09,0-16.96.34-23.62,1.01-6.66.67-13.13,1.27-19.4,1.79-2.27.21-4.25-.23-5.93-1.32-1.68-1.09-2.95-2.46-3.82-4.12-.87-1.66-1.3-3.32-1.3-4.98,0-2.8.78-4.9,2.35-6.3,1.57-1.4,3.33-3.03,5.28-4.9,1.08-1.14,2.14-2.36,3.17-3.66,1.03-1.29,2.19-3.08,3.49-5.37,5.84-9.54,12.88-20.28,21.11-32.2,8.22-11.93,17.05-23.96,26.46-36.09-.76.1-1.95.21-3.57.31-1.62.1-3.25.16-4.87.16h-3.57c-3.79,0-7.17-.02-10.15-.08-2.98-.05-5.84-.13-8.6-.23-2.76-.1-5.87-.26-9.34-.47Z"/>
        <path d="M636.31,231.1l-.81-16.65c6.28-.72,11.47-1.97,15.59-3.73,4.11-1.76,7.2-3.84,9.25-6.22,2.05-2.38,3.09-4.77,3.09-7.16,0-2.07-.57-3.5-1.7-4.28-1.14-.78-2.63-1.17-4.47-1.17-1.95,0-3.95.62-6.01,1.87-2.06,1.24-3.92,2.96-5.6,5.13-1.68,2.18-3.06,4.74-4.14,7.7-1.08,2.96-1.62,6.2-1.62,9.72,0,6.95.84,12.42,2.52,16.41,1.68,3.99,3.95,6.85,6.82,8.56,2.87,1.71,6.19,2.57,9.98,2.57s6.84-.62,9.5-1.87c2.65-1.24,5.28-3.16,7.87-5.76,1.19-1.24,2.46-2.36,3.82-3.34,1.35-.98,2.89-1.48,4.63-1.48,2.16,0,3.92.57,5.28,1.71,1.35,1.14,2.33,2.54,2.92,4.2.59,1.66.89,3.22.89,4.67,0,1.04-.19,2.13-.57,3.27-.38,1.14-1.11,2.33-2.19,3.58-2.27,2.91-5.36,5.34-9.25,7.31-3.9,1.97-8.04,3.47-12.42,4.51-4.38,1.04-8.74,1.56-13.07,1.56-5.74,0-11.18-.93-16.32-2.8-5.14-1.87-9.72-4.64-13.72-8.32-4.01-3.68-7.14-8.25-9.42-13.69-2.27-5.45-3.41-11.69-3.41-18.75s1.3-13.77,3.9-19.21,6.06-10.01,10.39-13.69c4.33-3.68,9.15-6.43,14.45-8.25,5.3-1.81,10.66-2.72,16.07-2.72,5.74,0,10.82.83,15.26,2.49,4.44,1.66,7.9,4.12,10.39,7.39,2.49,3.27,3.73,7.39,3.73,12.37,0,2.9-.71,6.04-2.11,9.41-1.41,3.37-3.92,6.69-7.55,9.96-3.63,3.27-8.85,6.2-15.67,8.79-6.82,2.59-15.59,4.56-26.3,5.91Z"/>
        <path d="M710.99,182.72c0-2.07.65-3.78,1.95-5.13,1.3-1.35,2.98-2.38,5.03-3.11,2.05-.72,4.06-1.09,6.01-1.09,4.55,0,7.95.78,10.23,2.33,2.27,1.56,3.41,3.89,3.41,7,0,7.05-.19,13.36-.57,18.9-.38,5.55-.81,10.89-1.3,16.02-.49,5.13-.95,10.5-1.38,16.1-.43,5.6-.76,12.03-.97,19.29-.11,2.9-1.35,5.06-3.73,6.46-2.38,1.4-5.63,2.1-9.74,2.1-3.79,0-6.66-.52-8.61-1.56-1.95-1.04-3.25-2.31-3.9-3.81-.65-1.5-.97-3.03-.97-4.59,0-.93.13-3.21.41-6.85.27-3.63.62-8.09,1.06-13.38.43-5.29.89-10.89,1.38-16.8.49-5.91.89-11.67,1.22-17.27.32-5.6.49-10.47.49-14.62ZM710.51,148.65c0-2.9.65-5.45,1.95-7.62,1.3-2.18,3.06-3.86,5.28-5.06,2.22-1.19,4.68-1.79,7.39-1.79,4.65,0,8.2.7,10.63,2.1,2.44,1.4,4.08,3.09,4.95,5.06.86,1.97,1.3,3.84,1.3,5.6,0,4.36-1.54,7.81-4.63,10.35-3.08,2.54-7.06,3.81-11.93,3.81-4.44,0-8.04-1.06-10.8-3.19-2.76-2.12-4.14-5.21-4.14-9.26Z"/>
        <path d="M757.75,194.39c-2.06.11-3.82-.62-5.28-2.18s-2.19-3.89-2.19-7,.73-5.24,2.19-6.69c1.46-1.45,3.22-2.23,5.28-2.33,2.81-.21,6.33-.39,10.55-.54,4.22-.16,8.74-.26,13.56-.31,4.81-.05,9.71-.1,14.69-.15,4.98-.05,9.69-.08,14.12-.08,1.84,0,3.57.73,5.2,2.18,1.62,1.45,2.44,3.94,2.44,7.47,0,2.91-.84,5.06-2.52,6.46-1.68,1.4-3.38,2.1-5.11,2.1-4.55,0-9.01.03-13.39.08-4.38.05-8.74.11-13.07.16-4.33.05-8.69.16-13.07.31-4.38.16-8.85.34-13.39.54ZM765.7,160.32c.32-2.38,1.32-4.28,3-5.68,1.68-1.4,4.57-2.1,8.69-2.1,2.7,0,5.3.29,7.79.86,2.49.57,4.44,1.5,5.84,2.8,1.41,1.3,1.89,3.14,1.46,5.52-.65,5.39-1.3,10.97-1.95,16.72-.65,5.76-1.14,11.67-1.46,17.74-.32,6.07-.38,12.32-.16,18.75.22,6.64.62,11.64,1.22,15.01.59,3.37,1.32,5.6,2.19,6.69.86,1.09,1.73,1.63,2.6,1.63.97,0,2.05-.44,3.25-1.32,1.19-.88,2.35-1.92,3.49-3.11,1.14-1.19,2.03-2.15,2.68-2.88.65-.72,1.43-1.37,2.35-1.94.92-.57,1.97-.86,3.17-.86,1.62,0,3.3.42,5.03,1.25,1.73.83,3.22,2,4.47,3.5,1.24,1.5,1.87,3.24,1.87,5.21,0,.73-.22,1.94-.65,3.66-.43,1.71-1.95,3.81-4.55,6.3-2.92,2.8-6.17,5.13-9.74,7-3.57,1.87-7.09,3.24-10.55,4.12-3.47.88-6.55,1.32-9.25,1.32-6.93,0-12.07-1.71-15.42-5.13-3.36-3.42-5.74-8.09-7.14-14-.97-4.56-1.6-9.02-1.87-13.38-.27-4.36-.41-8.87-.41-13.54,0-6.32.13-12.45.41-18.36.27-5.91.7-11.8,1.3-17.66.59-5.86,1.38-11.9,2.35-18.12Z"/>
      </g>
    </g>
  </g>
</svg>