<?xml version="1.0" encoding="UTF-8"?>
<svg id="Layer_2" data-name="Layer 2" xmlns="http://www.w3.org/2000/svg" viewBox="0 0 906.11 390.56">
  <defs>
    <style>
      .cls-1 {
        fill: #fff;
      }

      .cls-2 {
        fill: #ff5413;
      }
    </style>
  </defs>
  <g id="Layer_1-2" data-name="Layer 1">
    <path class="cls-1" d="M710.83,390.56H195.28c-51.96,0-100.94-20.37-137.92-57.36C20.37,296.22,0,247.23,0,195.28S20.37,94.34,57.35,57.35C94.34,20.37,143.32,0,195.28,0h515.56c51.96,0,100.94,20.37,137.92,57.35,36.99,36.99,57.35,85.97,57.35,137.92s-20.37,100.94-57.35,137.92-85.97,57.36-137.92,57.36ZM195.28,19C98.08,19,19,98.08,19,195.28s79.08,176.28,176.28,176.28h515.56c97.2,0,176.28-79.08,176.28-176.28S808.03,19,710.83,19H195.28Z"/>
    <rect class="cls-2" x="87.87" y="82.39" width="435.56" height="225.78" rx="112.89" ry="112.89"/>
    <g>
      <path class="cls-1" d="M205.56,251.76c-4.91-.8-10.55-1.38-16.92-1.73-6.37-.35-12.76-.55-19.19-.6-6.42-.05-12.09.13-16.99.53-4.8.4-8.22-.3-10.26-2.1s-3-3.9-2.9-6.3c.1-4.7.31-9.13.63-13.28.31-4.15.47-8.58.47-13.28.1-4,.21-8.93.31-14.78.1-5.85.23-11.96.39-18.31.16-6.35.34-12.41.55-18.16.21-5.75.42-10.66.63-14.71.21-4.05.36-6.58.47-7.58.42-3,1.88-5.13,4.38-6.38,2.51-1.25,5.27-1.88,8.3-1.88,4.17,0,7.52.73,10.02,2.18,2.51,1.45,3.7,4.03,3.6,7.73-.42,12.71-.92,26.34-1.49,40.9-.58,14.56-1.12,29.04-1.64,43.45,7.31-.5,14.49-.53,21.54-.08s13.6,1.18,19.66,2.18c2.71.4,4.57,1.75,5.56,4.05.99,2.3,1.49,4.65,1.49,7.05,0,3.3-.63,6.08-1.88,8.33-1.25,2.25-3.5,3.18-6.73,2.78Z"/>
      <path class="cls-1" d="M221.22,213.49c0-4.9.86-10,2.58-15.31,1.72-5.3,4.33-10.25,7.83-14.86,3.5-4.6,8.01-8.33,13.55-11.18,5.53-2.85,12.06-4.28,19.58-4.28,5.74,0,10.67.78,14.8,2.33,4.12,1.55,7.33,3.83,9.63,6.83,2.3,3,3.45,6.7,3.45,11.11,0,5.1-1.38,9.66-4.15,13.66-2.77,4-6.42,7.46-10.96,10.36-4.54,2.9-9.42,5.23-14.64,6.98-5.22,1.75-10.29,2.93-15.19,3.53,1.36,4.2,3.47,7.15,6.34,8.85,2.87,1.7,6.71,2.55,11.51,2.55,4.07,0,7.88-.95,11.43-2.85,3.55-1.9,7.26-4.85,11.12-8.85.63-.6,1.33-1.05,2.11-1.35.78-.3,1.54-.45,2.27-.45,1.77,0,3.45.52,5.01,1.58s2.79,2.38,3.68,3.98c.89,1.6,1.33,3.1,1.33,4.5,0,.7-.21,1.5-.63,2.4-.42.9-.89,1.7-1.41,2.4-2.72,3.6-6.11,6.68-10.18,9.23-4.07,2.55-8.56,4.48-13.47,5.78-4.91,1.3-10.08,1.95-15.5,1.95-9.08,0-16.6-1.88-22.55-5.63-5.95-3.75-10.36-8.6-13.23-14.56-2.87-5.95-4.31-12.18-4.31-18.69ZM246.75,206.14c5.22-.8,9.53-2.08,12.92-3.83,3.39-1.75,5.92-3.73,7.6-5.93,1.67-2.2,2.51-4.3,2.51-6.3,0-1.3-.52-2.53-1.57-3.68-1.04-1.15-2.87-1.73-5.48-1.73s-4.88.63-7.13,1.88c-2.25,1.25-4.15,3.43-5.72,6.53-1.57,3.1-2.61,7.45-3.13,13.06Z"/>
      <path class="cls-1" d="M316.13,180.17c.21-4.3,1.46-7.35,3.76-9.16,2.3-1.8,5.85-2.7,10.65-2.7,3.45,0,6.24.63,8.38,1.88,2.14,1.25,3.26,2.98,3.37,5.18.1,1.5.08,2.93-.08,4.28-.16,1.35-.34,3.13-.55,5.33,2.09-4.3,4.57-7.83,7.44-10.58,2.87-2.75,5.95-4.78,9.24-6.08,3.29-1.3,6.34-1.95,9.16-1.95,2.61,0,5.17.33,7.68.98,2.51.65,4.44,1.58,5.79,2.78,1.36,1.1,2.37,2.38,3.05,3.83.68,1.45,1.02,3.18,1.02,5.18,0,4.2-.96,7.33-2.9,9.38-1.93,2.05-4.46,3.08-7.6,3.08-1.57,0-2.98-.25-4.23-.75-1.25-.5-2.56-.98-3.92-1.43-1.36-.45-3.08-.67-5.17-.67-2.19,0-4.21.48-6.03,1.43-1.83.95-3.45,2.3-4.85,4.05-1.41,1.75-2.74,3.88-3.99,6.38-.94,2.2-1.72,4.8-2.35,7.8-.63,3-1.15,6.3-1.57,9.91-.42,3.6-.78,7.48-1.1,11.63-.31,4.15-.63,8.48-.94,12.98-.21,3.5-1.7,6.08-4.46,7.73-2.77,1.65-6.81,2.48-12.14,2.48-2.61,0-4.99-.65-7.13-1.95-2.14-1.3-3.16-3.8-3.05-7.5.31-6.5.6-13.48.86-20.94.26-7.45.55-14.88.86-22.29.31-7.4.57-14.16.78-20.26Z"/>
      <path class="cls-1" d="M398.51,174.77c-.11-2.2,1.02-4.18,3.37-5.93,2.35-1.75,5.98-2.63,10.89-2.63,2.4,0,4.36.43,5.87,1.28,1.51.85,2.66,2.53,3.45,5.03.78,2.5,1.23,6.3,1.33,11.41,2.51-5.5,5.66-9.75,9.48-12.76,3.81-3,8.54-4.5,14.17-4.5,5.33,0,10.23,1.25,14.72,3.75,4.49,2.5,8.12,6.33,10.88,11.48,2.77,5.15,4.15,11.78,4.15,19.89,0,3.9-.16,8.21-.47,12.91-.31,4.7-.65,9.38-1.02,14.03-.37,4.65-.55,9.03-.55,13.13,0,3.1-1.36,5.5-4.07,7.2-2.72,1.7-6.26,2.55-10.65,2.55s-7.49-.68-9.32-2.03c-1.83-1.35-2.74-3.62-2.74-6.83,0-1.4.13-3.43.39-6.08.26-2.65.52-5.65.78-9,.26-3.35.5-6.85.71-10.5.21-3.65.31-7.18.31-10.58,0-4.9-.47-8.63-1.41-11.18-.94-2.55-2.17-4.28-3.68-5.18-1.52-.9-3.21-1.35-5.09-1.35-1.57,0-3.11.73-4.62,2.18-1.51,1.45-2.92,3.38-4.23,5.78-1.31,2.4-2.4,4.95-3.29,7.65-.89,2.7-1.59,5.3-2.11,7.8-1.04,6.5-1.88,11.76-2.51,15.76-.63,4-1.12,7.18-1.49,9.53-.37,2.35-.65,4.28-.86,5.78-.42,3.1-1.64,5.18-3.68,6.23s-4.99,1.58-8.85,1.58c-3.03,0-5.64-.35-7.83-1.05s-3.76-2-4.7-3.9c-.94-1.9-1.1-4.6-.47-8.1.73-3.9,1.38-8.35,1.96-13.36.57-5,1.02-10.23,1.33-15.68.31-5.45.47-10.73.47-15.83,0-3.1-.03-5.73-.08-7.88-.05-2.15-.11-4.08-.16-5.78-.05-1.7-.18-3.3-.39-4.8Z"/>
      <path class="cls-1" d="M508.92,156.76c-3.45-.3-5.95-1.45-7.52-3.45-1.57-2-2.35-4.4-2.35-7.2s.73-5.2,2.19-7.5c1.46-2.3,3.6-3.4,6.42-3.3l14.88.45c10.23.3,20.46.45,30.7.45,3.65,0,7.33-.02,11.04-.08,3.71-.05,7.39-.12,11.04-.22,2.92-.1,5.51.73,7.75,2.48,2.24,1.75,3.37,3.68,3.37,5.78,0,1.2-.34,2.58-1.02,4.13-.68,1.55-1.64,3.08-2.9,4.58-3.86,4.1-8.17,9.11-12.92,15.01-4.75,5.9-9.63,12.31-14.64,19.21-5.01,6.9-9.92,13.91-14.72,21.01-4.8,7.11-9.14,14.01-13,20.71,2.71-.1,5.4-.2,8.07-.3,2.66-.1,5.25-.15,7.75-.15,4.39,0,8.69.1,12.92.3,4.23.2,8.09.45,11.59.75,3.5.3,6.34.7,8.54,1.2,3.24.6,5.3,1.8,6.19,3.6.89,1.8,1.33,4,1.33,6.6,0,2.9-.81,5.5-2.43,7.8-1.62,2.3-4.41,3.25-8.38,2.85-4.07-.4-9.01-.78-14.8-1.12-5.79-.35-11.77-.53-17.93-.53-8.77,0-16.37.32-22.79.98-6.42.65-12.66,1.22-18.72,1.73-2.19.2-4.1-.23-5.72-1.28-1.62-1.05-2.85-2.38-3.68-3.98-.84-1.6-1.25-3.2-1.25-4.8,0-2.7.76-4.73,2.27-6.08,1.51-1.35,3.21-2.93,5.09-4.73,1.04-1.1,2.06-2.27,3.05-3.53.99-1.25,2.11-2.98,3.37-5.18,5.64-9.2,12.42-19.56,20.36-31.07,7.93-11.5,16.44-23.11,25.53-34.82-.73.1-1.88.2-3.45.3-1.57.1-3.13.15-4.7.15h-3.45c-3.66,0-6.92-.02-9.79-.08-2.87-.05-5.64-.12-8.3-.23-2.66-.1-5.67-.25-9.01-.45Z"/>
      <path class="cls-1" d="M613.85,222.94l-.78-16.06c6.05-.7,11.07-1.9,15.04-3.6,3.97-1.7,6.94-3.7,8.93-6,1.98-2.3,2.98-4.6,2.98-6.9,0-2-.55-3.38-1.64-4.13-1.1-.75-2.53-1.13-4.31-1.13-1.88,0-3.81.6-5.79,1.8-1.98,1.2-3.79,2.85-5.4,4.95-1.62,2.1-2.95,4.58-3.99,7.43-1.04,2.85-1.57,5.98-1.57,9.38,0,6.7.81,11.98,2.43,15.83,1.62,3.85,3.81,6.6,6.58,8.25,2.76,1.65,5.98,2.48,9.63,2.48s6.6-.6,9.16-1.8c2.56-1.2,5.09-3.05,7.6-5.55,1.15-1.2,2.37-2.27,3.68-3.23,1.3-.95,2.79-1.43,4.46-1.43,2.09,0,3.78.55,5.09,1.65,1.3,1.1,2.24,2.45,2.82,4.05.57,1.6.86,3.1.86,4.5,0,1-.18,2.05-.55,3.15-.37,1.1-1.07,2.25-2.11,3.45-2.19,2.8-5.17,5.15-8.93,7.05-3.76,1.9-7.75,3.35-11.98,4.35-4.23,1-8.43,1.5-12.61,1.5-5.54,0-10.78-.9-15.74-2.7-4.96-1.8-9.37-4.48-13.23-8.03-3.86-3.55-6.89-7.96-9.08-13.21-2.19-5.25-3.29-11.28-3.29-18.08s1.25-13.28,3.76-18.54,5.85-9.65,10.02-13.21c4.17-3.55,8.82-6.2,13.94-7.95,5.11-1.75,10.28-2.63,15.5-2.63,5.53,0,10.44.8,14.72,2.4,4.28,1.6,7.62,3.98,10.02,7.13,2.4,3.15,3.6,7.13,3.6,11.93,0,2.8-.68,5.83-2.04,9.08-1.36,3.25-3.79,6.45-7.28,9.6-3.5,3.15-8.54,5.98-15.11,8.48-6.58,2.5-15.04,4.4-25.37,5.7Z"/>
      <path class="cls-1" d="M685.9,176.27c0-2,.63-3.65,1.88-4.95,1.25-1.3,2.87-2.3,4.86-3,1.98-.7,3.92-1.05,5.79-1.05,4.39,0,7.67.75,9.87,2.25,2.19,1.5,3.29,3.75,3.29,6.75,0,6.81-.18,12.88-.55,18.24-.37,5.35-.78,10.5-1.25,15.46-.47,4.95-.92,10.13-1.33,15.53-.42,5.4-.73,11.61-.94,18.61-.11,2.8-1.31,4.88-3.6,6.23-2.3,1.35-5.43,2.03-9.4,2.03-3.66,0-6.42-.5-8.3-1.5-1.88-1-3.13-2.22-3.76-3.68-.63-1.45-.94-2.93-.94-4.43,0-.9.13-3.1.39-6.6.26-3.5.6-7.8,1.02-12.91.42-5.1.86-10.51,1.33-16.21s.86-11.26,1.17-16.66c.31-5.4.47-10.1.47-14.11ZM685.43,143.4c0-2.8.63-5.25,1.88-7.35,1.25-2.1,2.95-3.73,5.09-4.88,2.14-1.15,4.52-1.73,7.13-1.73,4.49,0,7.91.68,10.26,2.03,2.35,1.35,3.94,2.98,4.78,4.88.83,1.9,1.25,3.7,1.25,5.4,0,4.2-1.49,7.53-4.46,9.98-2.98,2.45-6.81,3.68-11.51,3.68-4.28,0-7.75-1.02-10.42-3.08-2.66-2.05-3.99-5.03-3.99-8.93Z"/>
      <path class="cls-1" d="M731.01,187.52c-1.98.1-3.68-.6-5.09-2.1s-2.11-3.75-2.11-6.75.71-5.05,2.11-6.45c1.41-1.4,3.11-2.15,5.09-2.25,2.71-.2,6.11-.38,10.18-.52,4.07-.15,8.43-.25,13.08-.3,4.64-.05,9.37-.1,14.17-.15,4.8-.05,9.34-.08,13.63-.08,1.77,0,3.45.7,5.01,2.1,1.57,1.4,2.35,3.8,2.35,7.2,0,2.8-.81,4.88-2.43,6.23-1.62,1.35-3.26,2.03-4.93,2.03-4.38,0-8.69.03-12.92.07-4.23.05-8.43.1-12.61.15-4.18.05-8.38.15-12.61.3-4.23.15-8.54.33-12.92.53ZM738.68,154.66c.31-2.3,1.28-4.13,2.9-5.48,1.62-1.35,4.41-2.03,8.38-2.03,2.61,0,5.11.28,7.52.83,2.4.55,4.28,1.45,5.64,2.7,1.36,1.25,1.83,3.03,1.41,5.33-.63,5.2-1.25,10.58-1.88,16.13-.63,5.55-1.1,11.26-1.41,17.11-.31,5.85-.37,11.88-.16,18.08.21,6.4.6,11.23,1.17,14.48.57,3.25,1.28,5.4,2.11,6.45.83,1.05,1.67,1.58,2.51,1.58.94,0,1.98-.42,3.13-1.28,1.15-.85,2.27-1.85,3.37-3,1.1-1.15,1.96-2.08,2.58-2.78.63-.7,1.38-1.33,2.27-1.88.89-.55,1.9-.83,3.05-.83,1.57,0,3.18.4,4.86,1.2,1.67.8,3.11,1.93,4.31,3.38,1.2,1.45,1.8,3.13,1.8,5.03,0,.7-.21,1.88-.63,3.53-.42,1.65-1.88,3.68-4.38,6.08-2.82,2.7-5.95,4.95-9.4,6.75-3.45,1.8-6.84,3.13-10.18,3.98-3.34.85-6.32,1.28-8.93,1.28-6.68,0-11.64-1.65-14.88-4.95-3.24-3.3-5.54-7.8-6.89-13.51-.94-4.4-1.54-8.7-1.8-12.91-.26-4.2-.39-8.55-.39-13.06,0-6.1.13-12.01.39-17.71.26-5.7.68-11.38,1.25-17.03.57-5.65,1.33-11.48,2.27-17.48Z"/>
    </g>
  </g>
</svg>